<svg xmlns="http://www.w3.org/2000/svg" width="25.293" height="26.915" viewBox="0 0 25.293 26.915">
  <path id="_8666686_github_icon" data-name="8666686_github_icon" d="M10.285,22.31C4.367,24.085,4.367,19.351,2,18.759m16.57,7.1V21.28a3.989,3.989,0,0,0-1.113-3.089c3.716-.414,7.622-1.823,7.622-8.285a6.438,6.438,0,0,0-1.775-4.438A6,6,0,0,0,23.2,1S21.8.591,18.57,2.757a15.836,15.836,0,0,0-8.285,0C7.054.591,5.657,1,5.657,1a6,6,0,0,0-.107,4.462A6.439,6.439,0,0,0,3.775,9.941c0,6.415,3.906,7.824,7.622,8.285a3.989,3.989,0,0,0-1.113,3.054V25.86" transform="translate(-0.787 0.055)" fill="none" stroke="#000" stroke-linecap="round" stroke-linejoin="round" stroke-width="2"/>
</svg>
